<svg xmlns="http://www.w3.org/2000/svg" fill="currentColor" viewBox="0 0 300 300" style="color: gray;" focusable="false" class="chakra-icon css-1iu0mhe"><path d="M135.9 93.8c-2.5 0-4.9-1.2-6.3-3.5l-19.8-31.7c-2.2-3.5-1.1-8.1 2.4-10.3s8.1-1.1 10.3 2.4l19.8 31.7c2.2 3.5 1.1 8.1-2.4 10.3-1.3.8-2.7 1.1-4 1.1m28.8 4.1c-1.3 0-2.7-.4-3.9-1.1-3.5-2.2-4.5-6.8-2.4-10.3l19.8-31.7c2.2-3.5 6.8-4.5 10.3-2.4 3.5 2.2 4.5 6.8 2.4 10.3L171 94.4c-1.4 2.3-3.8 3.5-6.3 3.5m-14.2 81.3h25c2.8 0 3.4.8 3.1 3.6-1.5 14.1-14.2 25-28.7 24.9-14.4-.2-26.6-11.2-28-25.3-.2-2.4.7-3.2 3-3.2zm52.7-52.1c9.2 0 16.4 7.2 16.5 16.4 0 9-7.3 16.4-16.2 16.4-9.1 0-16.6-7.3-16.6-16.3-.2-9 7.2-16.4 16.3-16.5m-105.7.1c9.1 0 16.4 7.4 16.4 16.5-.1 9.1-7.5 16.4-16.6 16.3-8.9-.1-16.2-7.4-16.3-16.4 0-9.1 7.4-16.5 16.5-16.4" class="chat_svg__st0"></path><path d="M203.4 240.4H97.2c-35 0-63.6-28.5-63.6-63.6v-28.1c0-35 28.5-63.6 63.6-63.6h106.2c35 0 63.6 28.5 63.6 63.6v28.1c-.1 35-28.6 63.6-63.6 63.6M97.2 102.9c-25.2 0-45.8 20.5-45.8 45.8v28.1c0 25.2 20.5 45.8 45.8 45.8h106.2c25.2 0 45.8-20.5 45.8-45.8v-28.1c0-25.2-20.5-45.8-45.8-45.8zm-72.3 29.2c-10.7 0-19.4 7-19.4 15.6v30.1c0 8.6 8.7 15.6 19.4 15.6h.7v-61.3zm250.8 0c10.7 0 19.4 7 19.4 15.6v30.1c0 8.6-8.7 15.6-19.4 15.6h-.7v-61.3z" class="chat_svg__st0"></path></svg>
